<?xml version="1.0" encoding="UTF-8" standalone="no"?>
<svg width="800" height="600" viewBox="0 0 800 600" xmlns="http://www.w3.org/2000/svg">
  <!-- Cyberpunk map background with Solana style -->
  <defs>
    <linearGradient id="grid-gradient" x1="0%" y1="0%" x2="100%" y2="100%">
      <stop offset="0%" stop-color="#9945FF" stop-opacity="0.1"/>
      <stop offset="50%" stop-color="#1e2035" stop-opacity="0.05"/>
      <stop offset="100%" stop-color="#14F195" stop-opacity="0.1"/>
    </linearGradient>
  </defs>
  
  <!-- Background -->
  <rect width="100%" height="100%" fill="#0c0c15"/>
  
  <!-- Grid pattern -->
  <g stroke="#1e2035" stroke-width="1">
    <!-- Horizontal lines -->
    <line x1="0" y1="50" x2="800" y2="50" />
    <line x1="0" y1="100" x2="800" y2="100" />
    <line x1="0" y1="150" x2="800" y2="150" />
    <line x1="0" y1="200" x2="800" y2="200" />
    <line x1="0" y1="250" x2="800" y2="250" />
    <line x1="0" y1="300" x2="800" y2="300" />
    <line x1="0" y1="350" x2="800" y2="350" />
    <line x1="0" y1="400" x2="800" y2="400" />
    <line x1="0" y1="450" x2="800" y2="450" />
    <line x1="0" y1="500" x2="800" y2="500" />
    <line x1="0" y1="550" x2="800" y2="550" />
    
    <!-- Vertical lines -->
    <line x1="50" y1="0" x2="50" y2="600" />
    <line x1="100" y1="0" x2="100" y2="600" />
    <line x1="150" y1="0" x2="150" y2="600" />
    <line x1="200" y1="0" x2="200" y2="600" />
    <line x1="250" y1="0" x2="250" y2="600" />
    <line x1="300" y1="0" x2="300" y2="600" />
    <line x1="350" y1="0" x2="350" y2="600" />
    <line x1="400" y1="0" x2="400" y2="600" />
    <line x1="450" y1="0" x2="450" y2="600" />
    <line x1="500" y1="0" x2="500" y2="600" />
    <line x1="550" y1="0" x2="550" y2="600" />
    <line x1="600" y1="0" x2="600" y2="600" />
    <line x1="650" y1="0" x2="650" y2="600" />
    <line x1="700" y1="0" x2="700" y2="600" />
    <line x1="750" y1="0" x2="750" y2="600" />
  </g>
  
  <!-- Abstract City Districts -->
  <g fill="url(#grid-gradient)" stroke="#1e2035" stroke-width="1">
    <rect x="100" y="100" width="250" height="150" opacity="0.5" />
    <rect x="450" y="150" width="200" height="100" opacity="0.4" />
    <rect x="200" y="300" width="300" height="200" opacity="0.3" />
    <rect x="550" y="300" width="150" height="150" opacity="0.35" />
    <rect x="100" y="350" width="80" height="150" opacity="0.45" />
  </g>
  
  <!-- Abstract Roads -->
  <g stroke="#14F195" stroke-width="2" opacity="0.4">
    <line x1="100" y1="300" x2="700" y2="300" />
    <line x1="400" y1="100" x2="400" y2="500" />
    <line x1="100" y1="150" x2="600" y2="150" />
    <line x1="300" y1="100" x2="300" y2="400" />
    <line x1="550" y1="200" x2="550" y2="450" />
    <line x1="200" y1="400" x2="600" y2="400" />
  </g>
  
  <!-- Data Points -->
  <g fill="#9945FF" opacity="0.6">
    <circle cx="400" cy="300" r="5" />
    <circle cx="300" cy="150" r="3" />
    <circle cx="550" cy="300" r="4" />
    <circle cx="200" cy="400" r="3" />
    <circle cx="650" cy="200" r="2" />
    <circle cx="500" cy="450" r="3" />
    <circle cx="350" cy="250" r="2" />
    <circle cx="450" cy="350" r="2" />
  </g>
  
  <!-- Main Location - San Francisco -->
  <g>
    <circle cx="400" cy="300" r="15" fill="#0c0c15" stroke="#14F195" stroke-width="2" />
    <circle cx="400" cy="300" r="5" fill="#14F195" />
  </g>
  
  <!-- Solana Logo Subtle Watermark -->
  <g transform="translate(350, 250) scale(0.1)" opacity="0.1" fill="#ffffff">
    <path d="M416 320H128L240 160H528L416 320ZM240 352H528L416 512H128L240 352Z" />
    <path d="M468 96L620 96L148 672L-4 672L468 96Z" />
  </g>
</svg>