<?xml version="1.0" encoding="UTF-8" standalone="no"?>
<svg width="256" height="256" viewBox="0 0 256 256" xmlns="http://www.w3.org/2000/svg">
  <defs>
    <linearGradient id="logo-gradient" x1="0%" y1="0%" x2="100%" y2="100%">
      <stop offset="0%" stop-color="#9945FF" />
      <stop offset="100%" stop-color="#14F195" />
    </linearGradient>
  </defs>
  
  <!-- Circle Background -->
  <circle cx="128" cy="128" r="128" fill="#0c0c15"/>
  
  <!-- Border Glow -->
  <circle cx="128" cy="128" r="124" fill="none" stroke="url(#logo-gradient)" stroke-width="2" />
  
  <!-- Volume Visualization Elements -->
  <g>
    <!-- Stylized Bar Chart -->
    <rect x="64" y="160" width="24" height="40" rx="2" fill="#9945FF" />
    <rect x="96" y="128" width="24" height="72" rx="2" fill="#14F195" />
    <rect x="128" y="96" width="24" height="104" rx="2" fill="#DC1FFF" />
    <rect x="160" y="144" width="24" height="56" rx="2" fill="#9945FF" />
    
    <!-- Glowing Chart Lines -->
    <path d="M64 160 L88 160 L96 128 L120 128 L128 96 L152 96 L160 144 L184 144" 
          stroke="url(#logo-gradient)" stroke-width="3" fill="none" stroke-linecap="round" stroke-linejoin="round" />
    
    <!-- Pulsing Data Points -->
    <circle cx="76" cy="160" r="4" fill="#14F195" />
    <circle cx="108" cy="128" r="4" fill="#9945FF" />
    <circle cx="140" cy="96" r="4" fill="#14F195" />
    <circle cx="172" cy="144" r="4" fill="#9945FF" />
  </g>
  
  <!-- Solana Logo Integration -->
  <g transform="translate(106, 64) scale(0.08)">
    <path d="M416 320H128L240 160H528L416 320ZM240 352H528L416 512H128L240 352Z" fill="#ffffff" />
    <path d="M468 96L620 96L148 672L-4 672L468 96Z" fill="#ffffff" />
  </g>
  
  <!-- Cyberpunk Grid Accents -->
  <g stroke="#1e2035" stroke-width="1" opacity="0.3">
    <line x1="0" y1="64" x2="256" y2="64" />
    <line x1="0" y1="128" x2="256" y2="128" />
    <line x1="0" y1="192" x2="256" y2="192" />
    <line x1="64" y1="0" x2="64" y2="256" />
    <line x1="128" y1="0" x2="128" y2="256" />
    <line x1="192" y1="0" x2="192" y2="256" />
  </g>
</svg>