<?xml version="1.0" encoding="UTF-8"?>
<svg width="200" height="200" viewBox="0 0 200 200" fill="none" xmlns="http://www.w3.org/2000/svg">
  <!-- Background circle -->
  <circle cx="100" cy="100" r="100" fill="#03E1FF" opacity="0.2" />
  
  <!-- Holographic base -->
  <circle cx="100" cy="100" r="70" fill="#03E1FF" opacity="0.4" stroke="#03E1FF" stroke-width="1" stroke-dasharray="5 3" />
  
  <!-- Digital noise texture -->
  <rect x="50" y="50" width="100" height="100" fill="url(#noise)" opacity="0.1" />
  <defs>
    <pattern id="noise" patternUnits="userSpaceOnUse" width="30" height="30" patternTransform="scale(1) rotate(0)">
      <rect width="10" height="10" fill="#03E1FF" opacity="0.6" />
      <rect x="10" y="10" width="10" height="10" fill="#03E1FF" opacity="0.6" />
      <rect x="20" y="20" width="10" height="10" fill="#03E1FF" opacity="0.6" />
      <rect y="20" width="10" height="10" fill="#03E1FF" opacity="0.6" />
      <rect x="20" width="10" height="10" fill="#03E1FF" opacity="0.6" />
    </pattern>
  </defs>
  
  <!-- Cybernetic face frame -->
  <path d="M60 70 L140 70 L150 100 L140 130 L60 130 L50 100 Z" fill="none" stroke="#03E1FF" stroke-width="2" />
  
  <!-- Holographic eyes -->
  <circle cx="80" cy="90" r="10" fill="#000" stroke="#03E1FF" stroke-width="1" stroke-dasharray="3 2" />
  <circle cx="120" cy="90" r="10" fill="#000" stroke="#03E1FF" stroke-width="1" stroke-dasharray="3 2" />
  
  <!-- Digital eye display -->
  <rect x="75" y="87" width="10" height="6" rx="1" fill="#03E1FF" />
  <rect x="115" y="87" width="10" height="6" rx="1" fill="#03E1FF" />
  
  <!-- Digital mouth interface -->
  <path d="M70 110 L80 115 L90 110 L100 115 L110 110 L120 115 L130 110" stroke="#03E1FF" stroke-width="1.5" fill="none" />
  
  <!-- Data streams -->
  <line x1="40" y1="70" x2="40" y2="130" stroke="#03E1FF" stroke-width="1" stroke-dasharray="4 2" />
  <line x1="160" y1="70" x2="160" y2="130" stroke="#03E1FF" stroke-width="1" stroke-dasharray="4 2" />
  
  <!-- Circuitry lines -->
  <path d="M40 80 L60 80" stroke="#9945FF" stroke-width="1" />
  <path d="M40 100 L60 100" stroke="#9945FF" stroke-width="1" />
  <path d="M40 120 L60 120" stroke="#9945FF" stroke-width="1" />
  
  <path d="M160 80 L140 80" stroke="#9945FF" stroke-width="1" />
  <path d="M160 100 L140 100" stroke="#9945FF" stroke-width="1" />
  <path d="M160 120 L140 120" stroke="#9945FF" stroke-width="1" />
  
  <!-- Digital crown -->
  <path d="M80 50 L100 30 L120 50" stroke="#9945FF" stroke-width="2" />
  
  <!-- Connection nodes -->
  <circle cx="80" cy="50" r="3" fill="#9945FF" />
  <circle cx="100" cy="30" r="3" fill="#9945FF" />
  <circle cx="120" cy="50" r="3" fill="#9945FF" />
  
  <!-- Holographic projection lines -->
  <line x1="100" y1="30" x2="100" y2="20" stroke="#03E1FF" stroke-width="1" stroke-dasharray="2 1" />
  <circle cx="100" cy="15" r="5" fill="#03E1FF" opacity="0.5" />
</svg>