<?xml version="1.0" encoding="UTF-8"?>
<svg width="200" height="200" viewBox="0 0 200 200" fill="none" xmlns="http://www.w3.org/2000/svg">
  <!-- Background circle -->
  <circle cx="100" cy="100" r="100" fill="#14F195" opacity="0.2" />
  
  <!-- Main face shape with glitch effect -->
  <path d="M100 30 L130 70 L120 170 L80 170 L70 70 Z" fill="#14F195" opacity="0.8" />
  
  <!-- Cybernetic ear pieces -->
  <rect x="40" y="80" width="20" height="40" rx="5" fill="#000" stroke="#9945FF" stroke-width="1.5" />
  <rect x="140" y="80" width="20" height="40" rx="5" fill="#000" stroke="#9945FF" stroke-width="1.5" />
  
  <!-- Digital connection lines -->
  <line x1="60" y1="90" x2="75" y2="90" stroke="#9945FF" stroke-width="1.5" />
  <line x1="60" y1="100" x2="75" y2="100" stroke="#9945FF" stroke-width="1.5" />
  <line x1="60" y1="110" x2="75" y2="110" stroke="#9945FF" stroke-width="1.5" />
  
  <line x1="140" y1="90" x2="125" y2="90" stroke="#9945FF" stroke-width="1.5" />
  <line x1="140" y1="100" x2="125" y2="100" stroke="#9945FF" stroke-width="1.5" />
  <line x1="140" y1="110" x2="125" y2="110" stroke="#9945FF" stroke-width="1.5" />
  
  <!-- Helmet visor -->
  <path d="M75 60 L125 60 L130 90 L70 90 Z" fill="#000" />
  
  <!-- Visor lights -->
  <rect x="80" y="70" width="40" height="10" fill="#14F195" opacity="0.7" />
  
  <!-- Digital scan lines on visor -->
  <line x1="80" y1="73" x2="120" y2="73" stroke="#000" stroke-width="1" />
  <line x1="80" y1="76" x2="120" y2="76" stroke="#000" stroke-width="1" />
  <line x1="80" y1="79" x2="120" y2="79" stroke="#000" stroke-width="1" />
  
  <!-- Lower face mask -->
  <path d="M70 110 L130 110 L120 140 L80 140 Z" fill="#111" />
  
  <!-- Digital mouth display -->
  <rect x="85" y="120" width="30" height="10" rx="2" fill="#03E1FF" opacity="0.7" />
  
  <!-- Tech attachments -->
  <circle cx="50" cy="60" r="5" fill="#9945FF" />
  <circle cx="150" cy="60" r="5" fill="#9945FF" />
  <line x1="50" y1="60" x2="75" y2="60" stroke="#9945FF" stroke-width="1.5" />
  <line x1="150" y1="60" x2="125" y2="60" stroke="#9945FF" stroke-width="1.5" />
  
  <!-- Digital crown/interface -->
  <path d="M80 40 L100 30 L120 40" stroke="#9945FF" stroke-width="2" fill="none" />
  <circle cx="100" cy="30" r="4" fill="#9945FF" />
</svg>