<?xml version="1.0" encoding="UTF-8"?>
<svg width="200" height="200" viewBox="0 0 200 200" fill="none" xmlns="http://www.w3.org/2000/svg">
  <!-- Background circle -->
  <circle cx="100" cy="100" r="100" fill="#5DADE2" opacity="0.2" />
  
  <!-- Main face shape -->
  <circle cx="100" cy="100" r="70" fill="#5DADE2" opacity="0.8" />
  
  <!-- Holographic face shield -->
  <path d="M50 70 L150 70 L140 130 L60 130 Z" fill="#000" fill-opacity="0.3" stroke="#5DADE2" stroke-width="2" stroke-dasharray="5 2" />
  
  <!-- Digital eyes -->
  <rect x="65" y="85" width="25" height="10" rx="2" fill="#14F195" />
  <rect x="110" y="85" width="25" height="10" rx="2" fill="#14F195" />
  
  <!-- Digital patterns -->
  <line x1="65" y1="90" x2="90" y2="90" stroke="#000" stroke-width="2" />
  <line x1="110" y1="90" x2="135" y2="90" stroke="#000" stroke-width="2" />
  
  <!-- Tech crown -->
  <path d="M70 40 L100 20 L130 40" stroke="#9945FF" stroke-width="3" fill="none" />
  
  <!-- Cybernetic nodes -->
  <circle cx="70" cy="40" r="4" fill="#9945FF" />
  <circle cx="100" cy="20" r="4" fill="#9945FF" />
  <circle cx="130" cy="40" r="4" fill="#9945FF" />
  
  <!-- Circuit connections -->
  <path d="M60 55 L80 75" stroke="#14F195" stroke-width="1.5" />
  <path d="M140 55 L120 75" stroke="#14F195" stroke-width="1.5" />
  
  <!-- Digital mouth -->
  <path d="M80 110 L120 110" stroke="#fff" stroke-width="2" />
  <path d="M85 115 L115 115" stroke="#fff" stroke-width="2" />
  
  <!-- Holographic data streams -->
  <line x1="50" y1="60" x2="50" y2="140" stroke="#5DADE2" stroke-width="1" stroke-dasharray="4 2" />
  <line x1="150" y1="60" x2="150" y2="140" stroke="#5DADE2" stroke-width="1" stroke-dasharray="4 2" />
</svg>