<?xml version="1.0" encoding="UTF-8"?>
<svg width="200" height="200" viewBox="0 0 200 200" fill="none" xmlns="http://www.w3.org/2000/svg">
  <!-- Background circle -->
  <circle cx="100" cy="100" r="100" fill="#9945FF" opacity="0.2" />
  
  <!-- Main face outline - more angular and cyberpunk -->
  <path d="M70 50 L130 50 L150 100 L130 150 L70 150 L50 100 Z" fill="#9945FF" opacity="0.8" />
  
  <!-- Visor/band across eyes -->
  <rect x="55" y="80" width="90" height="20" fill="#000" />
  
  <!-- Digital eye displays -->
  <rect x="65" y="85" width="25" height="10" rx="2" fill="#14F195" />
  <rect x="110" y="85" width="25" height="10" rx="2" fill="#14F195" />
  
  <!-- Scanner lines in eyes -->
  <line x1="65" y1="90" x2="90" y2="90" stroke="#000" stroke-width="1" />
  <line x1="110" y1="90" x2="135" y2="90" stroke="#000" stroke-width="1" />
  
  <!-- Cybernetic implants -->
  <circle cx="40" cy="100" r="5" fill="#14F195" />
  <circle cx="160" cy="100" r="5" fill="#14F195" />
  <line x1="40" y1="100" x2="55" y2="90" stroke="#14F195" stroke-width="1.5" />
  <line x1="160" y1="100" x2="145" y2="90" stroke="#14F195" stroke-width="1.5" />
  
  <!-- Digital/mechanical mouth -->
  <rect x="75" y="120" width="50" height="10" rx="2" fill="#000" stroke="#14F195" stroke-width="1" />
  <line x1="80" y1="125" x2="120" y2="125" stroke="#14F195" stroke-width="1" stroke-dasharray="2 2" />
  
  <!-- Tech crown with data nodes -->
  <path d="M70 50 L100 30 L130 50" stroke="#14F195" stroke-width="2" fill="none" />
  <circle cx="70" cy="50" r="3" fill="#14F195" />
  <circle cx="100" cy="30" r="3" fill="#14F195" />
  <circle cx="130" cy="50" r="3" fill="#14F195" />
  
  <!-- Circuit patterns -->
  <path d="M40 70 L70 50" stroke="#14F195" stroke-width="1" stroke-dasharray="3 2" />
  <path d="M160 70 L130 50" stroke="#14F195" stroke-width="1" stroke-dasharray="3 2" />
  <circle cx="40" cy="70" r="3" fill="#14F195" />
  <circle cx="160" cy="70" r="3" fill="#14F195" />
  
  <!-- Additional tech details -->
  <rect x="95" y="50" width="10" height="20" fill="#14F195" opacity="0.5" />
  <circle cx="100" cy="45" r="3" fill="#14F195" />
</svg>