<?xml version="1.0" encoding="UTF-8" standalone="no"?>
<svg width="100" height="100" viewBox="0 0 100 100" fill="none" xmlns="http://www.w3.org/2000/svg">
  <rect width="100" height="100" fill="none"/>
  <defs>
    <linearGradient id="solanaGradient1" x1="0%" y1="0%" x2="100%" y2="100%">
      <stop offset="0%" stop-color="#14F195"/>
      <stop offset="100%" stop-color="#03E1FF"/>
    </linearGradient>
    <linearGradient id="solanaGradient2" x1="0%" y1="0%" x2="100%" y2="100%">
      <stop offset="0%" stop-color="#9945FF"/>
      <stop offset="100%" stop-color="#03E1FF"/>
    </linearGradient>
    <filter id="glow" x="-50%" y="-50%" width="200%" height="200%">
      <feGaussianBlur stdDeviation="2" result="blur"/>
      <feComposite in="SourceGraphic" in2="blur" operator="over"/>
    </filter>
  </defs>
  
  <!-- Glowing background effect -->
  <rect x="15" y="20" width="70" height="60" rx="8" fill="#070710" filter="url(#glow)"/>
  
  <!-- Top bar with gradient -->
  <path d="M25 32H75C77.7614 32 80 34.2386 80 37V43C80 45.7614 77.7614 48 75 48H25C22.2386 48 20 45.7614 20 43V37C20 34.2386 22.2386 32 25 32Z" 
        fill="url(#solanaGradient1)"/>
  
  <!-- Middle bar with gradient -->
  <path d="M25 52H75C77.7614 52 80 54.2386 80 57V57C80 59.7614 77.7614 62 75 62H25C22.2386 62 20 59.7614 20 57V57C20 54.2386 22.2386 52 25 52Z" 
        fill="url(#solanaGradient2)"/>
  
  <!-- Bottom bar with gradient -->
  <path d="M25 66H75C77.7614 66 80 68.2386 80 71V71C80 73.7614 77.7614 76 75 76H25C22.2386 76 20 73.7614 20 71V71C20 68.2386 22.2386 66 25 66Z" 
        fill="url(#solanaGradient1)"/>
</svg>