<?xml version="1.0" encoding="UTF-8"?>
<svg width="200" height="200" viewBox="0 0 200 200" fill="none" xmlns="http://www.w3.org/2000/svg">
  <!-- Background circle -->
  <circle cx="100" cy="100" r="100" fill="#03E1FF" opacity="0.2" />
  
  <!-- Main face shape -->
  <circle cx="100" cy="100" r="70" fill="#03E1FF" opacity="0.8" />
  
  <!-- Digital eye -->
  <circle cx="70" cy="85" r="15" fill="#000" />
  <circle cx="70" cy="85" r="5" fill="#03E1FF" />
  
  <!-- Human eye -->
  <circle cx="130" cy="85" r="15" fill="#000" />
  <circle cx="130" cy="85" r="5" fill="#fff" />
  
  <!-- Cyber implants -->
  <rect x="40" y="85" width="15" height="2" fill="#9945FF" />
  <rect x="145" y="85" width="15" height="2" fill="#9945FF" />
  
  <!-- Circuit patterns -->
  <path d="M50 60 L80 70" stroke="#9945FF" stroke-width="2" />
  <path d="M150 60 L120 70" stroke="#9945FF" stroke-width="2" />
  
  <!-- Holographic mouth -->
  <path d="M70 120 Q100 130 130 120" stroke="#fff" stroke-width="2" stroke-dasharray="4 2" />
  
  <!-- Tech head gear -->
  <path d="M60 40 L140 40 L150 60 L50 60 Z" fill="#000" stroke="#03E1FF" stroke-width="2" />
  
  <!-- Glowing nodes -->
  <circle cx="70" cy="50" r="3" fill="#03E1FF" />
  <circle cx="100" cy="50" r="3" fill="#03E1FF" />
  <circle cx="130" cy="50" r="3" fill="#03E1FF" />
  
  <!-- Data stream -->
  <path d="M100 10 L100 40" stroke="#03E1FF" stroke-width="2" stroke-dasharray="4 2" />
  <circle cx="100" cy="10" r="5" fill="#03E1FF" />
</svg>