<?xml version="1.0" encoding="UTF-8"?>
<svg width="200" height="200" viewBox="0 0 200 200" fill="none" xmlns="http://www.w3.org/2000/svg">
  <!-- Background circle -->
  <circle cx="100" cy="100" r="100" fill="#F49D6E" opacity="0.2" />
  
  <!-- Main face shape -->
  <circle cx="100" cy="100" r="70" fill="#F49D6E" opacity="0.8" />
  
  <!-- Robotic face plate -->
  <path d="M60 70 L140 70 L130 140 L70 140 Z" fill="#111" />
  
  <!-- LED eyes -->
  <circle cx="80" cy="90" r="10" fill="#000" stroke="#14F195" stroke-width="2" />
  <circle cx="120" cy="90" r="10" fill="#000" stroke="#14F195" stroke-width="2" />
  <circle cx="80" cy="90" r="4" fill="#14F195" />
  <circle cx="120" cy="90" r="4" fill="#14F195" />
  
  <!-- Sound wave mouth -->
  <path d="M70 120 L75 115 L80 120 L85 115 L90 120 L95 115 L100 120 L105 115 L110 120 L115 115 L120 120 L125 115 L130 120" stroke="#9945FF" stroke-width="2" fill="none" />
  
  <!-- Cybernetic antenna -->
  <path d="M100 40 L100 20" stroke="#14F195" stroke-width="2" />
  <circle cx="100" cy="15" r="5" fill="#9945FF" />
  
  <!-- Digital interface connections -->
  <line x1="50" y1="80" x2="65" y2="80" stroke="#14F195" stroke-width="1.5" />
  <line x1="50" y1="100" x2="65" y2="100" stroke="#14F195" stroke-width="1.5" />
  <line x1="50" y1="120" x2="65" y2="120" stroke="#14F195" stroke-width="1.5" />
  
  <line x1="150" y1="80" x2="135" y2="80" stroke="#14F195" stroke-width="1.5" />
  <line x1="150" y1="100" x2="135" y2="100" stroke="#14F195" stroke-width="1.5" />
  <line x1="150" y1="120" x2="135" y2="120" stroke="#14F195" stroke-width="1.5" />
  
  <!-- Tech power nodes -->
  <circle cx="50" cy="80" r="3" fill="#9945FF" />
  <circle cx="50" cy="100" r="3" fill="#9945FF" />
  <circle cx="50" cy="120" r="3" fill="#9945FF" />
  
  <circle cx="150" cy="80" r="3" fill="#9945FF" />
  <circle cx="150" cy="100" r="3" fill="#9945FF" />
  <circle cx="150" cy="120" r="3" fill="#9945FF" />
  
  <!-- Cyberpunk design elements -->
  <path d="M60 60 L80 40 L120 40 L140 60" stroke="#F49D6E" stroke-width="2" fill="none" />
</svg>